HIERARCHY
ROOT Hips
{
	OFFSET 0.000000 0.000000 0.000000 
	CHANNELS 6 Xposition Yposition Zposition Zrotation Yrotation Xrotation
	JOINT LeftUpLeg
	{
		OFFSET 1.363060 -1.794630 0.839290 
		CHANNELS 3 Zrotation Yrotation Xrotation
		JOINT LeftLeg
		{
			OFFSET 2.448110 -6.726130 0.000000 
			CHANNELS 3 Zrotation Yrotation Xrotation
			JOINT LeftFoot
			{
				OFFSET 2.562200 -7.039590 0.000000 
				CHANNELS 3 Zrotation Yrotation Xrotation
				JOINT LeftToeBase
				{
					OFFSET 0.157640 -0.433110 2.322550 
					CHANNELS 3 Zrotation Yrotation Xrotation
					End Site
					{
						OFFSET 0.000000 0.000000 0.000000 
					}
				}
			}
		}
	}
	JOINT RightUpLeg
	{
		OFFSET -1.305520 -1.794630 0.839290 
		CHANNELS 3 Zrotation Yrotation Xrotation
		JOINT RightLeg
		{
			OFFSET -2.542530 -6.985550 0.000000 
			CHANNELS 3 Zrotation Yrotation Xrotation
			JOINT RightFoot
			{
				OFFSET -2.568260 -7.056230 0.000000 
				CHANNELS 3 Zrotation Yrotation Xrotation
				JOINT RightToeBase
				{
					OFFSET -0.164730 -0.452590 2.363150 
					CHANNELS 3 Zrotation Yrotation Xrotation
					End Site
					{
						OFFSET 0.000000 0.000000 0.000000 
					}
				}
			}
		}
	}
	JOINT Spine
	{
		OFFSET 0.028270 2.035590 -0.193380 
		CHANNELS 3 Zrotation Yrotation Xrotation
		JOINT Spine1
		{
			OFFSET 0.056720 2.048850 -0.042750 
			CHANNELS 3 Zrotation Yrotation Xrotation
			JOINT Neck1
			{
				OFFSET -0.054170 1.746240 0.172020 
				CHANNELS 3 Zrotation Yrotation Xrotation
				JOINT Head
				{
					OFFSET 0.104070 1.761360 -0.123970 
					CHANNELS 3 Zrotation Yrotation Xrotation
					End Site
					{
						OFFSET 0.000000 0.000000 0.000000 
					}
				}
			}
			JOINT LeftArm
			{
				OFFSET 3.362410 1.200890 -0.311210 
				CHANNELS 3 Zrotation Yrotation Xrotation
				JOINT LeftForeArm
				{
					OFFSET 4.983000 -0.000000 -0.000000 
					CHANNELS 3 Zrotation Yrotation Xrotation
					JOINT LeftHand
					{
						OFFSET 3.483560 -0.000000 -0.000000 
						CHANNELS 3 Zrotation Yrotation Xrotation
						JOINT LeftHandIndex1
						{
							OFFSET 0.715260 -0.000000 -0.000000 
							CHANNELS 3 Zrotation Yrotation Xrotation
							End Site
							{
								OFFSET 0.000000 0.000000 0.000000 
							}
						}
					}
				}
			}
			JOINT RightArm
			{
				OFFSET -3.136600 1.374050 -0.404650 
				CHANNELS 3 Zrotation Yrotation Xrotation
				JOINT RightForeArm
				{
					OFFSET -5.241900 -0.000000 -0.000000 
					CHANNELS 3 Zrotation Yrotation Xrotation
					JOINT RightHand
					{
						OFFSET -3.444170 -0.000000 -0.000000 
						CHANNELS 3 Zrotation Yrotation Xrotation
						JOINT RightHandIndex1
						{
							OFFSET -0.622530 -0.000000 -0.000000 
							CHANNELS 3 Zrotation Yrotation Xrotation
							End Site
							{
								OFFSET 0.000000 0.000000 0.000000 
							}
						}
					}
				}
			}
		}
	}
}
MOTION
Frames: 18
Frame Time: 0.041667
-0.562881 18.316412 5.429426 -2.053680 -4.378509 0.976730 -14.042458 -10.648460 -2.963730 0.629842 6.408026 21.607925 -1.095920 9.877551 -18.305245 7.794400 -15.965900 -51.818500 3.325238 1.787462 -1.688732 -0.012970 0.604367 1.358779 0.266549 -0.923618 5.512286 0.000000 0.000000 0.000000 4.977580 -0.181408 19.618212 -2.563395 0.826289 -14.853260 5.019938 -2.585135 30.910335 1.350000 -0.563800 10.170200 -91.204475 8.370951 31.788750 23.415091 -32.350076 -5.890403 0.637458 0.423109 -3.696556 -7.125000 0.000000 0.000000 93.229369 -11.465405 23.073335 -33.436318 41.337169 -10.297183 0.757367 -3.303563 14.550561 7.125000 0.000000 0.000000 
-0.563469 18.316118 5.433247 -2.065038 -4.407486 0.941053 -14.050317 -10.668021 -2.876536 0.626908 6.402310 21.596673 -1.094668 9.893907 -18.360531 7.787400 -15.960600 -51.793100 3.326641 1.787296 -1.689827 -0.013126 0.603818 1.358563 0.266429 -0.924224 5.512229 0.000000 0.000000 0.000000 5.054543 -0.172427 19.630264 -2.615667 0.831805 -14.867854 5.493900 -2.692901 31.216923 1.490700 -0.560700 10.279700 -91.211615 8.348995 31.779069 23.384943 -32.327291 -5.879022 0.638687 0.422254 -3.691977 -7.125000 0.000000 0.000000 93.225893 -11.484597 23.092775 -33.439021 41.329839 -10.295583 0.753596 -3.301466 14.522764 7.125000 0.000000 0.000000 
-0.563959 18.316706 5.435108 -2.058590 -4.408205 0.933809 -14.073816 -10.700133 -2.826755 0.621772 6.394937 21.576487 -1.111631 9.963123 -18.369736 7.793300 -15.965100 -51.814900 3.328453 1.786647 -1.691657 -0.013183 0.602589 1.358116 0.266058 -0.925465 5.511817 0.000000 0.000000 0.000000 5.092282 -0.174765 19.582364 -2.609231 0.834343 -14.864657 5.541138 -2.700924 31.258328 1.506400 -0.559300 10.286900 -91.218876 8.349337 31.764925 23.392064 -32.331968 -5.880232 0.637037 0.422269 -3.692989 -7.125000 0.000000 0.000000 93.214316 -11.504527 23.129839 -33.432141 41.320978 -10.292394 0.748237 -3.301000 14.490653 7.125000 0.000000 0.000000 
-0.563959 18.317783 5.436284 -2.082012 -4.392263 0.977514 -14.057311 -10.717061 -2.852727 0.618612 6.392216 21.562663 -1.119296 9.987951 -18.357640 7.787100 -15.960400 -51.792300 3.331875 1.785745 -1.695263 -0.013349 0.600460 1.357501 0.265417 -0.927540 5.511051 0.000000 0.000000 0.000000 5.159583 -0.191818 19.459825 -2.621424 0.822836 -14.834075 5.441890 -2.655779 31.303952 1.486200 -0.548700 10.291500 -91.220073 8.374332 31.745791 23.428287 -32.363669 -5.894798 0.635155 0.424484 -3.720047 -7.125000 0.000000 0.000000 93.199192 -11.505796 23.211671 -33.372795 41.260042 -10.252908 0.730975 -3.297659 14.265754 7.125000 0.000000 0.000000 
-0.563861 18.318077 5.438244 -2.119865 -4.370525 1.005182 -14.025957 -10.737576 -2.858311 0.617398 6.388908 21.551986 -1.106794 9.945609 -18.375198 7.761700 -15.941200 -51.699900 3.334908 1.785154 -1.697770 -0.013617 0.599016 1.357044 0.264993 -0.929031 5.510716 0.000000 0.000000 0.000000 5.267183 -0.217037 19.406641 -2.644798 0.809573 -14.811408 5.249648 -2.585389 31.382200 1.445200 -0.537000 10.312200 -91.234938 8.371351 31.722902 23.433579 -32.367661 -5.898033 0.635757 0.424625 -3.726183 -7.125000 0.000000 0.000000 93.204169 -11.508609 23.229546 -33.362412 41.247281 -10.243031 0.724842 -3.295863 14.116542 7.125000 0.000000 0.000000 
-0.564351 18.317881 5.440301 -2.128760 -4.341097 0.996879 -14.027085 -10.739059 -2.845692 0.617677 6.385571 21.548491 -1.108122 9.943308 -18.357092 7.776200 -15.952200 -51.752600 3.337330 1.784699 -1.698808 -0.013926 0.598265 1.356631 0.264745 -0.929982 5.510835 0.000000 0.000000 0.000000 5.406681 -0.247622 19.432741 -2.665498 0.802409 -14.803115 5.246163 -2.589836 31.413956 1.452600 -0.543700 10.325500 -91.268964 8.348629 31.726405 23.426202 -32.363129 -5.893835 0.634944 0.424402 -3.757387 -7.125000 0.000000 0.000000 93.218344 -11.513676 23.161890 -33.404481 41.285187 -10.266442 0.733771 -3.296510 14.218842 7.125000 0.000000 0.000000 
-0.564841 18.317979 5.441771 -2.130842 -4.324594 0.998612 -14.028688 -10.690289 -2.857136 0.618900 6.383390 21.544386 -1.111869 9.933884 -18.293724 7.800200 -15.970300 -51.839800 3.340656 1.783819 -1.701455 -0.014167 0.596537 1.355979 0.264204 -0.931805 5.510432 0.000000 0.000000 0.000000 5.522850 -0.264033 19.376566 -2.687574 0.798802 -14.790890 5.334299 -2.630137 31.403787 1.479000 -0.557400 10.318200 -91.292209 8.348308 31.737974 23.415163 -32.351837 -5.887808 0.634264 0.424103 -3.796164 -7.125000 0.000000 0.000000 93.226336 -11.518924 23.157562 -33.338077 41.223729 -10.228362 0.707076 -3.293149 14.050241 7.125000 0.000000 0.000000 
-0.565036 18.318077 5.442555 -2.141233 -4.305504 1.002372 -14.024448 -10.683912 -2.848642 0.618074 6.381097 21.536960 -1.110021 9.923200 -18.284872 7.803700 -15.973000 -51.852700 3.343730 1.782905 -1.704546 -0.014307 0.594601 1.355342 0.263615 -0.933736 5.509781 0.000000 0.000000 0.000000 5.595343 -0.268873 19.285192 -2.695627 0.797515 -14.788912 5.300369 -2.622909 31.394616 1.470900 -0.558600 10.307600 -91.291593 8.340296 31.756680 23.390527 -32.323930 -5.877182 0.634716 0.424317 -3.794638 -7.125000 0.000000 0.000000 93.263553 -11.526154 23.083256 -33.312466 41.203283 -10.214446 0.696504 -3.292267 14.132684 7.125000 0.000000 0.000000 
-0.565036 18.318175 5.443534 -2.121531 -4.273594 0.986122 -14.047310 -10.712499 -2.820765 0.614436 6.377864 21.526158 -1.122437 9.978518 -18.303656 7.828200 -15.991400 -51.941500 3.343036 1.782846 -1.704492 -0.014153 0.594575 1.355338 0.263599 -0.933698 5.509608 0.000000 0.000000 0.000000 5.541057 -0.258377 19.271053 -2.667118 0.804241 -14.808080 5.267809 -2.613622 31.371286 1.460600 -0.557200 10.301300 -91.269909 8.320765 31.815884 23.392677 -32.325539 -5.877384 0.633450 0.426247 -3.812533 -7.125000 0.000000 0.000000 93.300092 -11.504626 22.932672 -33.385332 41.276366 -10.257902 0.730644 -3.297616 14.672034 7.125000 0.000000 0.000000 
-0.565428 18.318469 5.444906 -2.097556 -4.251181 0.980171 -14.061285 -10.690093 -2.815203 0.611924 6.373541 21.510197 -1.130050 9.999150 -18.278947 7.843500 -16.002900 -51.997000 3.342221 1.782751 -1.704830 -0.013924 0.594362 1.355341 0.263537 -0.933770 5.509237 0.000000 0.000000 0.000000 5.448945 -0.246846 19.223507 -2.635145 0.808349 -14.818553 5.249938 -2.615896 31.367582 1.453000 -0.559400 10.297400 -91.261271 8.333208 31.814077 23.417689 -32.348772 -5.887409 0.632781 0.423641 -3.779967 -7.125000 0.000000 0.000000 93.305378 -11.493249 22.941297 -33.355554 41.249237 -10.237585 0.727602 -3.296541 14.682263 7.125000 0.000000 0.000000 
-0.566310 18.318469 5.446278 -2.083074 -4.232097 0.995642 -14.064159 -10.668471 -2.819971 0.611748 6.371226 21.498929 -1.125770 9.965200 -18.231552 7.833700 -15.995600 -51.961400 3.344044 1.781907 -1.707825 -0.013822 0.592518 1.354827 0.262984 -0.935462 5.508313 0.000000 0.000000 0.000000 5.412188 -0.250633 19.094085 -2.605296 0.805063 -14.810058 5.176375 -2.598594 31.386773 1.432400 -0.558100 10.291600 -91.261477 8.375665 31.799160 23.450738 -32.376217 -5.901676 0.632667 0.421824 -3.752941 -7.125000 0.000000 0.000000 93.290878 -11.527256 23.072346 -33.246859 41.141785 -10.167395 0.685426 -3.288333 14.195290 7.125000 0.000000 0.000000 
-0.566800 18.318175 5.447943 -2.040777 -4.221377 1.015852 -14.107167 -10.716043 -2.801396 0.609696 6.371717 21.494607 -1.126124 9.975013 -18.249183 7.832900 -15.994900 -51.958400 3.345457 1.780940 -1.710995 -0.013592 0.590508 1.354266 0.262381 -0.937259 5.507185 0.000000 0.000000 0.000000 5.327744 -0.244190 18.944664 -2.541868 0.809326 -14.801839 5.038134 -2.543832 31.410782 1.398300 -0.545500 10.287000 -91.230517 8.436422 31.885732 23.505737 -32.421967 -5.923957 0.630003 0.426059 -3.823706 -7.125000 0.000000 0.000000 93.258939 -11.587412 23.175058 -33.219936 41.109730 -10.152443 0.667200 -3.285397 13.909437 7.125000 0.000000 0.000000 
-0.566604 18.318469 5.449805 -2.059755 -4.236269 1.029557 -14.102636 -10.743671 -2.782636 0.606293 6.371124 21.489942 -1.133784 10.022867 -18.297480 7.843900 -16.003200 -51.998500 3.347516 1.780363 -1.713352 -0.013669 0.589122 1.353876 0.261984 -0.938590 5.506651 0.000000 0.000000 0.000000 5.364896 -0.235839 18.865744 -2.550793 0.810734 -14.793117 4.940971 -2.509663 31.434872 1.375400 -0.539500 10.291800 -91.190496 8.478290 32.000031 23.558013 -32.469834 -5.944435 0.626974 0.429944 -3.893669 -7.125000 0.000000 0.000000 93.234682 -11.601449 23.209566 -33.232248 41.118294 -10.162309 0.676907 -3.288205 13.888736 7.125000 0.000000 0.000000 
-0.566212 18.318861 5.451177 -2.101664 -4.247364 1.036053 -14.069119 -10.696699 -2.800357 0.606590 6.371453 21.491297 -1.144792 10.054747 -18.271114 7.863700 -16.018100 -52.070400 3.349323 1.780178 -1.714365 -0.013911 0.588578 1.353690 0.261827 -0.939216 5.506678 0.000000 0.000000 0.000000 5.468270 -0.234630 18.859038 -2.596201 0.809011 -14.779867 4.901858 -2.521805 31.452160 1.364500 -0.550700 10.300900 -91.161178 8.490533 32.117373 23.594047 -32.507079 -5.959656 0.625187 0.434656 -3.965872 -7.125000 0.000000 0.000000 93.219869 -11.560819 23.210712 -33.201074 41.092747 -10.146977 0.687330 -3.292353 13.915425 7.125000 0.000000 0.000000 
-0.566212 18.318665 5.451373 -2.108078 -4.227328 1.052533 -14.068275 -10.676056 -2.829281 0.609738 6.375247 21.502427 -1.142495 10.030170 -18.229429 7.856600 -16.012800 -52.044500 3.353265 1.779093 -1.717917 -0.014152 0.586339 1.352899 0.261121 -0.941514 5.506037 0.000000 0.000000 0.000000 5.586866 -0.250460 18.768359 -2.601533 0.805343 -14.765520 4.831444 -2.515045 31.502221 1.349100 -0.556000 10.311700 -91.149481 8.518032 32.211028 23.617263 -32.526427 -5.970606 0.624971 0.438224 -4.059209 -7.125000 0.000000 0.000000 93.190493 -11.567704 23.218318 -33.196859 41.086233 -10.147185 0.688667 -3.293610 13.932700 7.125000 0.000000 0.000000 
-0.566800 18.318371 5.450785 -2.160475 -4.206034 1.073542 -14.018055 -10.636440 -2.865351 0.613743 6.378908 21.511176 -1.133169 9.970624 -18.168480 7.844700 -16.003900 -52.001500 3.359700 1.777545 -1.723682 -0.014597 0.582866 1.351742 0.260046 -0.945061 5.505064 0.000000 0.000000 0.000000 5.789029 -0.277524 18.619151 -2.645007 0.791914 -14.762027 4.820101 -2.514898 31.575983 1.349500 -0.556400 10.327100 -91.146446 8.538386 32.231953 23.611917 -32.517401 -5.970712 0.627510 0.435628 -4.123126 -7.125000 0.000000 0.000000 93.178792 -11.604784 23.203173 -33.230415 41.107989 -10.164607 0.680744 -3.290025 13.952101 7.125000 0.000000 0.000000 
-0.567290 18.317881 5.450883 -2.185973 -4.197797 1.068403 -13.987277 -10.568058 -2.881060 0.615984 6.380649 21.513663 -1.138820 9.965787 -18.097887 7.880400 -16.030600 -52.130700 3.361664 1.777041 -1.725957 -0.014673 0.581575 1.351377 0.259653 -0.946304 5.504560 0.000000 0.000000 0.000000 5.822944 -0.284103 18.539954 -2.661948 0.785010 -14.782251 4.868670 -2.533923 31.618944 1.361000 -0.558300 10.339000 -91.137386 8.543876 32.235161 23.603862 -32.510039 -5.969964 0.629918 0.432636 -4.160888 -7.125000 0.000000 0.000000 93.186341 -11.628750 23.180822 -33.262727 41.134177 -10.182830 0.678504 -3.288009 13.970687 7.125000 0.000000 0.000000 
-0.567094 18.317588 5.451960 -2.157872 -4.197184 1.058032 -14.016176 -10.571462 -2.856627 0.614299 6.381917 21.512934 -1.147169 10.004913 -18.113275 7.905500 -16.049300 -52.221600 3.361493 1.776712 -1.727378 -0.014422 0.580752 1.351223 0.259419 -0.946929 5.503880 0.000000 0.000000 0.000000 5.723527 -0.266864 18.448748 -2.633224 0.790674 -14.803135 4.977140 -2.567626 31.655860 1.387400 -0.560300 10.347400 -91.124467 8.572259 32.251028 23.614784 -32.519897 -5.975828 0.630313 0.431681 -4.133454 -7.125000 0.000000 0.000000 93.178640 -11.676821 23.187345 -33.298479 41.162846 -10.207471 0.680502 -3.288307 13.946926 7.125000 0.000000 0.000000 
